<?xml version="1.0" encoding="UTF-8" standalone="no"?>
<svg width="549px" height="90px" viewBox="0 0 549 90" version="1.1" xmlns="http://www.w3.org/2000/svg" xmlns:xlink="http://www.w3.org/1999/xlink" xmlns:sketch="http://www.bohemiancoding.com/sketch/ns">
    <!-- Generator: Sketch 3.4.3 (16044) - http://www.bohemiancoding.com/sketch -->
    <title>forms-screenshot</title>
    <desc>Created with Sketch.</desc>
    <defs></defs>
    <g id="Features" stroke="none" stroke-width="1" fill="none" fill-rule="evenodd" sketch:type="MSPage">
        <g id="Desktop" sketch:type="MSArtboardGroup" transform="translate(-384.000000, -512.000000)">
            <g id="forms-screenshot" sketch:type="MSLayerGroup" transform="translate(384.000000, 512.000000)">
                <g id="Rectangle-2-+-1450230205_document2-Copy-5" transform="translate(160.000000, 0.000000)" sketch:type="MSShapeGroup">
                    <rect id="Rectangle-2" fill="#FFFFFF" x="2.02941176" y="0" width="66.9705882" height="89" rx="5"></rect>
                    <g id="1450230205_document2" fill="#60D3C2">
                        <g id="Слой_1">
                            <g id="Group">
                                <path d="M62.3029412,0 L6.69705882,0 C3.34852941,0 0.608823529,2.7 0.608823529,6 L0.608823529,84 C0.608823529,87.3 3.34852941,90 6.69705882,90 L62.4044118,90 C65.7529412,90 68.4926471,87.3 68.4926471,84 L68.4926471,6 C68.4926471,2.7 65.7529412,0 62.3029412,0 L62.3029412,0 Z M65.3470588,84 C65.3470588,85.6 64.0279412,86.9 62.4044118,86.9 L6.69705882,86.9 C5.07352941,86.9 3.75441176,85.6 3.75441176,84 L3.75441176,6 C3.75441176,4.4 5.07352941,3.1 6.69705882,3.1 L62.4044118,3.1 C64.0279412,3.1 65.3470588,4.4 65.3470588,6 L65.3470588,84 L65.3470588,84 Z" id="Shape"></path>
                                <path d="M9.74117647,15.2 L35.7176471,15.2 C36.6308824,15.2 37.3411765,14.5 37.3411765,13.6 C37.3411765,12.7 36.5294118,12 35.6161765,12 L9.74117647,12 C8.82794118,12 8.11764706,12.7 8.11764706,13.6 C8.11764706,14.5 8.82794118,15.2 9.74117647,15.2 L9.74117647,15.2 Z" id="Shape"></path>
                                <path d="M57.2294118,23.3 L11.4661765,23.3 C10.5529412,23.3 9.84264706,24 9.84264706,24.9 C9.84264706,25.8 10.5529412,26.5 11.4661765,26.5 L57.2294118,26.5 C58.1426471,26.5 58.8529412,25.8 58.8529412,24.9 C58.8529412,24 58.1426471,23.3 57.2294118,23.3 L57.2294118,23.3 Z" id="Shape"></path>
                                <path d="M9.74117647,41.1 L53.6779412,41.1 C54.5911765,41.1 55.3014706,40.4 55.3014706,39.5 C55.3014706,38.6 54.5911765,37.9 53.6779412,37.9 L9.74117647,37.9 C8.82794118,37.9 8.11764706,38.6 8.11764706,39.5 C8.11764706,40.4 8.82794118,41.1 9.74117647,41.1 L9.74117647,41.1 Z" id="Shape"></path>
                                <path d="M57.2294118,52.6 L9.74117647,52.6 C8.82794118,52.6 8.11764706,53.3 8.11764706,54.2 C8.11764706,55.1 8.82794118,55.8 9.74117647,55.8 L57.3308824,55.8 C58.2441176,55.8 58.9544118,55.1 58.9544118,54.2 C58.9544118,53.3 58.1426471,52.6 57.2294118,52.6 L57.2294118,52.6 Z" id="Shape"></path>
                                <path d="M35.6161765,67.2 L9.74117647,67.2 C8.82794118,67.2 8.11764706,67.9 8.11764706,68.8 C8.11764706,69.7 8.82794118,70.4 9.74117647,70.4 L35.7176471,70.4 C36.6308824,70.4 37.3411765,69.7 37.3411765,68.8 C37.3411765,67.9 36.5294118,67.2 35.6161765,67.2 L35.6161765,67.2 Z" id="Shape"></path>
                            </g>
                        </g>
                    </g>
                </g>
                <g id="Rectangle-2-+-1450230205_document2-Copy-11" transform="translate(80.000000, 0.000000)" sketch:type="MSShapeGroup">
                    <rect id="Rectangle-2" fill="#FFFFFF" x="2.02941176" y="0" width="66.9705882" height="89" rx="5"></rect>
                    <g id="1450230205_document2" fill="#C0C0C0">
                        <g id="Слой_1">
                            <g id="Group">
                                <path d="M62.3029412,0 L6.69705882,0 C3.34852941,0 0.608823529,2.7 0.608823529,6 L0.608823529,84 C0.608823529,87.3 3.34852941,90 6.69705882,90 L62.4044118,90 C65.7529412,90 68.4926471,87.3 68.4926471,84 L68.4926471,6 C68.4926471,2.7 65.7529412,0 62.3029412,0 L62.3029412,0 Z M65.3470588,84 C65.3470588,85.6 64.0279412,86.9 62.4044118,86.9 L6.69705882,86.9 C5.07352941,86.9 3.75441176,85.6 3.75441176,84 L3.75441176,6 C3.75441176,4.4 5.07352941,3.1 6.69705882,3.1 L62.4044118,3.1 C64.0279412,3.1 65.3470588,4.4 65.3470588,6 L65.3470588,84 L65.3470588,84 Z" id="Shape"></path>
                                <path d="M9.74117647,15.2 L35.7176471,15.2 C36.6308824,15.2 37.3411765,14.5 37.3411765,13.6 C37.3411765,12.7 36.5294118,12 35.6161765,12 L9.74117647,12 C8.82794118,12 8.11764706,12.7 8.11764706,13.6 C8.11764706,14.5 8.82794118,15.2 9.74117647,15.2 L9.74117647,15.2 Z" id="Shape"></path>
                                <path d="M57.2294118,23.3 L11.4661765,23.3 C10.5529412,23.3 9.84264706,24 9.84264706,24.9 C9.84264706,25.8 10.5529412,26.5 11.4661765,26.5 L57.2294118,26.5 C58.1426471,26.5 58.8529412,25.8 58.8529412,24.9 C58.8529412,24 58.1426471,23.3 57.2294118,23.3 L57.2294118,23.3 Z" id="Shape"></path>
                                <path d="M9.74117647,41.1 L53.6779412,41.1 C54.5911765,41.1 55.3014706,40.4 55.3014706,39.5 C55.3014706,38.6 54.5911765,37.9 53.6779412,37.9 L9.74117647,37.9 C8.82794118,37.9 8.11764706,38.6 8.11764706,39.5 C8.11764706,40.4 8.82794118,41.1 9.74117647,41.1 L9.74117647,41.1 Z" id="Shape"></path>
                                <path d="M57.2294118,52.6 L9.74117647,52.6 C8.82794118,52.6 8.11764706,53.3 8.11764706,54.2 C8.11764706,55.1 8.82794118,55.8 9.74117647,55.8 L57.3308824,55.8 C58.2441176,55.8 58.9544118,55.1 58.9544118,54.2 C58.9544118,53.3 58.1426471,52.6 57.2294118,52.6 L57.2294118,52.6 Z" id="Shape"></path>
                                <path d="M35.6161765,67.2 L9.74117647,67.2 C8.82794118,67.2 8.11764706,67.9 8.11764706,68.8 C8.11764706,69.7 8.82794118,70.4 9.74117647,70.4 L35.7176471,70.4 C36.6308824,70.4 37.3411765,69.7 37.3411765,68.8 C37.3411765,67.9 36.5294118,67.2 35.6161765,67.2 L35.6161765,67.2 Z" id="Shape"></path>
                            </g>
                        </g>
                    </g>
                </g>
                <g id="Rectangle-2-+-1450230205_document2-Copy-10" sketch:type="MSShapeGroup">
                    <rect id="Rectangle-2" fill="#FFFFFF" x="2.02941176" y="0" width="66.9705882" height="89" rx="5"></rect>
                    <g id="1450230205_document2" fill="#44505D">
                        <g id="Слой_1">
                            <g id="Group">
                                <path d="M62.3029412,0 L6.69705882,0 C3.34852941,0 0.608823529,2.7 0.608823529,6 L0.608823529,84 C0.608823529,87.3 3.34852941,90 6.69705882,90 L62.4044118,90 C65.7529412,90 68.4926471,87.3 68.4926471,84 L68.4926471,6 C68.4926471,2.7 65.7529412,0 62.3029412,0 L62.3029412,0 Z M65.3470588,84 C65.3470588,85.6 64.0279412,86.9 62.4044118,86.9 L6.69705882,86.9 C5.07352941,86.9 3.75441176,85.6 3.75441176,84 L3.75441176,6 C3.75441176,4.4 5.07352941,3.1 6.69705882,3.1 L62.4044118,3.1 C64.0279412,3.1 65.3470588,4.4 65.3470588,6 L65.3470588,84 L65.3470588,84 Z" id="Shape"></path>
                                <path d="M9.74117647,15.2 L35.7176471,15.2 C36.6308824,15.2 37.3411765,14.5 37.3411765,13.6 C37.3411765,12.7 36.5294118,12 35.6161765,12 L9.74117647,12 C8.82794118,12 8.11764706,12.7 8.11764706,13.6 C8.11764706,14.5 8.82794118,15.2 9.74117647,15.2 L9.74117647,15.2 Z" id="Shape"></path>
                                <path d="M57.2294118,23.3 L11.4661765,23.3 C10.5529412,23.3 9.84264706,24 9.84264706,24.9 C9.84264706,25.8 10.5529412,26.5 11.4661765,26.5 L57.2294118,26.5 C58.1426471,26.5 58.8529412,25.8 58.8529412,24.9 C58.8529412,24 58.1426471,23.3 57.2294118,23.3 L57.2294118,23.3 Z" id="Shape"></path>
                                <path d="M9.74117647,41.1 L53.6779412,41.1 C54.5911765,41.1 55.3014706,40.4 55.3014706,39.5 C55.3014706,38.6 54.5911765,37.9 53.6779412,37.9 L9.74117647,37.9 C8.82794118,37.9 8.11764706,38.6 8.11764706,39.5 C8.11764706,40.4 8.82794118,41.1 9.74117647,41.1 L9.74117647,41.1 Z" id="Shape"></path>
                                <path d="M57.2294118,52.6 L9.74117647,52.6 C8.82794118,52.6 8.11764706,53.3 8.11764706,54.2 C8.11764706,55.1 8.82794118,55.8 9.74117647,55.8 L57.3308824,55.8 C58.2441176,55.8 58.9544118,55.1 58.9544118,54.2 C58.9544118,53.3 58.1426471,52.6 57.2294118,52.6 L57.2294118,52.6 Z" id="Shape"></path>
                                <path d="M35.6161765,67.2 L9.74117647,67.2 C8.82794118,67.2 8.11764706,67.9 8.11764706,68.8 C8.11764706,69.7 8.82794118,70.4 9.74117647,70.4 L35.7176471,70.4 C36.6308824,70.4 37.3411765,69.7 37.3411765,68.8 C37.3411765,67.9 36.5294118,67.2 35.6161765,67.2 L35.6161765,67.2 Z" id="Shape"></path>
                            </g>
                        </g>
                    </g>
                </g>
                <g id="Rectangle-2-+-1450230205_document2-Copy-6" transform="translate(240.000000, 0.000000)" sketch:type="MSShapeGroup">
                    <rect id="Rectangle-2" fill="#FFFFFF" x="2.02941176" y="0" width="66.9705882" height="89" rx="5"></rect>
                    <g id="1450230205_document2" fill="#F77462">
                        <g id="Слой_1">
                            <g id="Group">
                                <path d="M62.3029412,0 L6.69705882,0 C3.34852941,0 0.608823529,2.7 0.608823529,6 L0.608823529,84 C0.608823529,87.3 3.34852941,90 6.69705882,90 L62.4044118,90 C65.7529412,90 68.4926471,87.3 68.4926471,84 L68.4926471,6 C68.4926471,2.7 65.7529412,0 62.3029412,0 L62.3029412,0 Z M65.3470588,84 C65.3470588,85.6 64.0279412,86.9 62.4044118,86.9 L6.69705882,86.9 C5.07352941,86.9 3.75441176,85.6 3.75441176,84 L3.75441176,6 C3.75441176,4.4 5.07352941,3.1 6.69705882,3.1 L62.4044118,3.1 C64.0279412,3.1 65.3470588,4.4 65.3470588,6 L65.3470588,84 L65.3470588,84 Z" id="Shape"></path>
                                <path d="M9.74117647,15.2 L35.7176471,15.2 C36.6308824,15.2 37.3411765,14.5 37.3411765,13.6 C37.3411765,12.7 36.5294118,12 35.6161765,12 L9.74117647,12 C8.82794118,12 8.11764706,12.7 8.11764706,13.6 C8.11764706,14.5 8.82794118,15.2 9.74117647,15.2 L9.74117647,15.2 Z" id="Shape"></path>
                                <path d="M57.2294118,23.3 L11.4661765,23.3 C10.5529412,23.3 9.84264706,24 9.84264706,24.9 C9.84264706,25.8 10.5529412,26.5 11.4661765,26.5 L57.2294118,26.5 C58.1426471,26.5 58.8529412,25.8 58.8529412,24.9 C58.8529412,24 58.1426471,23.3 57.2294118,23.3 L57.2294118,23.3 Z" id="Shape"></path>
                                <path d="M9.74117647,41.1 L53.6779412,41.1 C54.5911765,41.1 55.3014706,40.4 55.3014706,39.5 C55.3014706,38.6 54.5911765,37.9 53.6779412,37.9 L9.74117647,37.9 C8.82794118,37.9 8.11764706,38.6 8.11764706,39.5 C8.11764706,40.4 8.82794118,41.1 9.74117647,41.1 L9.74117647,41.1 Z" id="Shape"></path>
                                <path d="M57.2294118,52.6 L9.74117647,52.6 C8.82794118,52.6 8.11764706,53.3 8.11764706,54.2 C8.11764706,55.1 8.82794118,55.8 9.74117647,55.8 L57.3308824,55.8 C58.2441176,55.8 58.9544118,55.1 58.9544118,54.2 C58.9544118,53.3 58.1426471,52.6 57.2294118,52.6 L57.2294118,52.6 Z" id="Shape"></path>
                                <path d="M35.6161765,67.2 L9.74117647,67.2 C8.82794118,67.2 8.11764706,67.9 8.11764706,68.8 C8.11764706,69.7 8.82794118,70.4 9.74117647,70.4 L35.7176471,70.4 C36.6308824,70.4 37.3411765,69.7 37.3411765,68.8 C37.3411765,67.9 36.5294118,67.2 35.6161765,67.2 L35.6161765,67.2 Z" id="Shape"></path>
                            </g>
                        </g>
                    </g>
                </g>
                <g id="Rectangle-2-+-1450230205_document2-Copy-7" transform="translate(320.000000, 0.000000)" sketch:type="MSShapeGroup">
                    <rect id="Rectangle-2" fill="#FFFFFF" x="2.02941176" y="0" width="66.9705882" height="89" rx="5"></rect>
                    <g id="1450230205_document2" fill="#E761C7">
                        <g id="Слой_1">
                            <g id="Group">
                                <path d="M62.3029412,0 L6.69705882,0 C3.34852941,0 0.608823529,2.7 0.608823529,6 L0.608823529,84 C0.608823529,87.3 3.34852941,90 6.69705882,90 L62.4044118,90 C65.7529412,90 68.4926471,87.3 68.4926471,84 L68.4926471,6 C68.4926471,2.7 65.7529412,0 62.3029412,0 L62.3029412,0 Z M65.3470588,84 C65.3470588,85.6 64.0279412,86.9 62.4044118,86.9 L6.69705882,86.9 C5.07352941,86.9 3.75441176,85.6 3.75441176,84 L3.75441176,6 C3.75441176,4.4 5.07352941,3.1 6.69705882,3.1 L62.4044118,3.1 C64.0279412,3.1 65.3470588,4.4 65.3470588,6 L65.3470588,84 L65.3470588,84 Z" id="Shape"></path>
                                <path d="M9.74117647,15.2 L35.7176471,15.2 C36.6308824,15.2 37.3411765,14.5 37.3411765,13.6 C37.3411765,12.7 36.5294118,12 35.6161765,12 L9.74117647,12 C8.82794118,12 8.11764706,12.7 8.11764706,13.6 C8.11764706,14.5 8.82794118,15.2 9.74117647,15.2 L9.74117647,15.2 Z" id="Shape"></path>
                                <path d="M57.2294118,23.3 L11.4661765,23.3 C10.5529412,23.3 9.84264706,24 9.84264706,24.9 C9.84264706,25.8 10.5529412,26.5 11.4661765,26.5 L57.2294118,26.5 C58.1426471,26.5 58.8529412,25.8 58.8529412,24.9 C58.8529412,24 58.1426471,23.3 57.2294118,23.3 L57.2294118,23.3 Z" id="Shape"></path>
                                <path d="M9.74117647,41.1 L53.6779412,41.1 C54.5911765,41.1 55.3014706,40.4 55.3014706,39.5 C55.3014706,38.6 54.5911765,37.9 53.6779412,37.9 L9.74117647,37.9 C8.82794118,37.9 8.11764706,38.6 8.11764706,39.5 C8.11764706,40.4 8.82794118,41.1 9.74117647,41.1 L9.74117647,41.1 Z" id="Shape"></path>
                                <path d="M57.2294118,52.6 L9.74117647,52.6 C8.82794118,52.6 8.11764706,53.3 8.11764706,54.2 C8.11764706,55.1 8.82794118,55.8 9.74117647,55.8 L57.3308824,55.8 C58.2441176,55.8 58.9544118,55.1 58.9544118,54.2 C58.9544118,53.3 58.1426471,52.6 57.2294118,52.6 L57.2294118,52.6 Z" id="Shape"></path>
                                <path d="M35.6161765,67.2 L9.74117647,67.2 C8.82794118,67.2 8.11764706,67.9 8.11764706,68.8 C8.11764706,69.7 8.82794118,70.4 9.74117647,70.4 L35.7176471,70.4 C36.6308824,70.4 37.3411765,69.7 37.3411765,68.8 C37.3411765,67.9 36.5294118,67.2 35.6161765,67.2 L35.6161765,67.2 Z" id="Shape"></path>
                            </g>
                        </g>
                    </g>
                </g>
                <g id="Rectangle-2-+-1450230205_document2-Copy-8" transform="translate(400.000000, 0.000000)" sketch:type="MSShapeGroup">
                    <rect id="Rectangle-2" fill="#FFFFFF" x="2.02941176" y="0" width="66.9705882" height="89" rx="5"></rect>
                    <g id="1450230205_document2" fill="#2888DE">
                        <g id="Слой_1">
                            <g id="Group">
                                <path d="M62.3029412,0 L6.69705882,0 C3.34852941,0 0.608823529,2.7 0.608823529,6 L0.608823529,84 C0.608823529,87.3 3.34852941,90 6.69705882,90 L62.4044118,90 C65.7529412,90 68.4926471,87.3 68.4926471,84 L68.4926471,6 C68.4926471,2.7 65.7529412,0 62.3029412,0 L62.3029412,0 Z M65.3470588,84 C65.3470588,85.6 64.0279412,86.9 62.4044118,86.9 L6.69705882,86.9 C5.07352941,86.9 3.75441176,85.6 3.75441176,84 L3.75441176,6 C3.75441176,4.4 5.07352941,3.1 6.69705882,3.1 L62.4044118,3.1 C64.0279412,3.1 65.3470588,4.4 65.3470588,6 L65.3470588,84 L65.3470588,84 Z" id="Shape"></path>
                                <path d="M9.74117647,15.2 L35.7176471,15.2 C36.6308824,15.2 37.3411765,14.5 37.3411765,13.6 C37.3411765,12.7 36.5294118,12 35.6161765,12 L9.74117647,12 C8.82794118,12 8.11764706,12.7 8.11764706,13.6 C8.11764706,14.5 8.82794118,15.2 9.74117647,15.2 L9.74117647,15.2 Z" id="Shape"></path>
                                <path d="M57.2294118,23.3 L11.4661765,23.3 C10.5529412,23.3 9.84264706,24 9.84264706,24.9 C9.84264706,25.8 10.5529412,26.5 11.4661765,26.5 L57.2294118,26.5 C58.1426471,26.5 58.8529412,25.8 58.8529412,24.9 C58.8529412,24 58.1426471,23.3 57.2294118,23.3 L57.2294118,23.3 Z" id="Shape"></path>
                                <path d="M9.74117647,41.1 L53.6779412,41.1 C54.5911765,41.1 55.3014706,40.4 55.3014706,39.5 C55.3014706,38.6 54.5911765,37.9 53.6779412,37.9 L9.74117647,37.9 C8.82794118,37.9 8.11764706,38.6 8.11764706,39.5 C8.11764706,40.4 8.82794118,41.1 9.74117647,41.1 L9.74117647,41.1 Z" id="Shape"></path>
                                <path d="M57.2294118,52.6 L9.74117647,52.6 C8.82794118,52.6 8.11764706,53.3 8.11764706,54.2 C8.11764706,55.1 8.82794118,55.8 9.74117647,55.8 L57.3308824,55.8 C58.2441176,55.8 58.9544118,55.1 58.9544118,54.2 C58.9544118,53.3 58.1426471,52.6 57.2294118,52.6 L57.2294118,52.6 Z" id="Shape"></path>
                                <path d="M35.6161765,67.2 L9.74117647,67.2 C8.82794118,67.2 8.11764706,67.9 8.11764706,68.8 C8.11764706,69.7 8.82794118,70.4 9.74117647,70.4 L35.7176471,70.4 C36.6308824,70.4 37.3411765,69.7 37.3411765,68.8 C37.3411765,67.9 36.5294118,67.2 35.6161765,67.2 L35.6161765,67.2 Z" id="Shape"></path>
                            </g>
                        </g>
                    </g>
                </g>
                <g id="Rectangle-2-+-1450230205_document2-Copy-9" transform="translate(480.000000, 0.000000)" sketch:type="MSShapeGroup">
                    <rect id="Rectangle-2" fill="#FFFFFF" x="2.02941176" y="0" width="66.9705882" height="89" rx="5"></rect>
                    <g id="1450230205_document2" fill="#A673ED">
                        <g id="Слой_1">
                            <g id="Group">
                                <path d="M62.3029412,0 L6.69705882,0 C3.34852941,0 0.608823529,2.7 0.608823529,6 L0.608823529,84 C0.608823529,87.3 3.34852941,90 6.69705882,90 L62.4044118,90 C65.7529412,90 68.4926471,87.3 68.4926471,84 L68.4926471,6 C68.4926471,2.7 65.7529412,0 62.3029412,0 L62.3029412,0 Z M65.3470588,84 C65.3470588,85.6 64.0279412,86.9 62.4044118,86.9 L6.69705882,86.9 C5.07352941,86.9 3.75441176,85.6 3.75441176,84 L3.75441176,6 C3.75441176,4.4 5.07352941,3.1 6.69705882,3.1 L62.4044118,3.1 C64.0279412,3.1 65.3470588,4.4 65.3470588,6 L65.3470588,84 L65.3470588,84 Z" id="Shape"></path>
                                <path d="M9.74117647,15.2 L35.7176471,15.2 C36.6308824,15.2 37.3411765,14.5 37.3411765,13.6 C37.3411765,12.7 36.5294118,12 35.6161765,12 L9.74117647,12 C8.82794118,12 8.11764706,12.7 8.11764706,13.6 C8.11764706,14.5 8.82794118,15.2 9.74117647,15.2 L9.74117647,15.2 Z" id="Shape"></path>
                                <path d="M57.2294118,23.3 L11.4661765,23.3 C10.5529412,23.3 9.84264706,24 9.84264706,24.9 C9.84264706,25.8 10.5529412,26.5 11.4661765,26.5 L57.2294118,26.5 C58.1426471,26.5 58.8529412,25.8 58.8529412,24.9 C58.8529412,24 58.1426471,23.3 57.2294118,23.3 L57.2294118,23.3 Z" id="Shape"></path>
                                <path d="M9.74117647,41.1 L53.6779412,41.1 C54.5911765,41.1 55.3014706,40.4 55.3014706,39.5 C55.3014706,38.6 54.5911765,37.9 53.6779412,37.9 L9.74117647,37.9 C8.82794118,37.9 8.11764706,38.6 8.11764706,39.5 C8.11764706,40.4 8.82794118,41.1 9.74117647,41.1 L9.74117647,41.1 Z" id="Shape"></path>
                                <path d="M57.2294118,52.6 L9.74117647,52.6 C8.82794118,52.6 8.11764706,53.3 8.11764706,54.2 C8.11764706,55.1 8.82794118,55.8 9.74117647,55.8 L57.3308824,55.8 C58.2441176,55.8 58.9544118,55.1 58.9544118,54.2 C58.9544118,53.3 58.1426471,52.6 57.2294118,52.6 L57.2294118,52.6 Z" id="Shape"></path>
                                <path d="M35.6161765,67.2 L9.74117647,67.2 C8.82794118,67.2 8.11764706,67.9 8.11764706,68.8 C8.11764706,69.7 8.82794118,70.4 9.74117647,70.4 L35.7176471,70.4 C36.6308824,70.4 37.3411765,69.7 37.3411765,68.8 C37.3411765,67.9 36.5294118,67.2 35.6161765,67.2 L35.6161765,67.2 Z" id="Shape"></path>
                            </g>
                        </g>
                    </g>
                </g>
            </g>
        </g>
    </g>
</svg>