<?xml version="1.0" encoding="UTF-8" standalone="no"?>
<svg width="689px" height="175px" viewBox="0 0 689 175" version="1.1" xmlns="http://www.w3.org/2000/svg" xmlns:xlink="http://www.w3.org/1999/xlink" xmlns:sketch="http://www.bohemiancoding.com/sketch/ns">
    <!-- Generator: Sketch 3.4.3 (16044) - http://www.bohemiancoding.com/sketch -->
    <title>guarantee-icon</title>
    <desc>Created with Sketch.</desc>
    <defs></defs>
    <g id="Features" stroke="none" stroke-width="1" fill="none" fill-rule="evenodd" sketch:type="MSPage">
        <g id="Desktop" sketch:type="MSArtboardGroup" transform="translate(-135.000000, -1083.000000)">
            <g id="guarantee-icon" sketch:type="MSLayerGroup" transform="translate(135.000000, 1083.000000)">
                <rect id="Rectangle-10" stroke="#FFFFFF" fill="#FFFFFF" sketch:type="MSShapeGroup" x="0" y="0" width="689" height="175"></rect>
                <g id="1450243230_certificate" transform="translate(251.000000, 4.000000)" sketch:type="MSShapeGroup">
                    <g id="Layer_1">
                        <path d="M178.734375,125.381246 L7.265625,125.381246 C3.25282031,125.381246 0,122.119983 0,118.096399 L0,7.37226078 C0,3.34940517 3.25282031,0.0877780172 7.265625,0.0877780172 L178.734375,0.0877780172 C182.74718,0.0877780172 186,3.34940517 186,7.37226078 L186,118.096399 C186,122.119983 182.74718,125.381246 178.734375,125.381246 L178.734375,125.381246 Z M180.1875,10.2856897 C180.1875,7.87234052 178.235953,5.91536422 175.828125,5.91536422 L10.171875,5.91536422 C7.76404688,5.91536422 5.8125,7.87234052 5.8125,10.2856897 L5.8125,115.182606 C5.8125,117.596319 7.76404688,119.552931 10.171875,119.552931 L26.379668,119.552931 L29.0625,125.380517 L74.109375,125.380517 L76.792207,119.552931 L175.828125,119.552931 C178.23559,119.552931 180.1875,117.596319 180.1875,115.182606 L180.1875,10.2856897 L180.1875,10.2856897 Z M160.664766,96.2429504 C161.816367,96.2429504 162.749637,97.2868168 162.749637,98.5736207 L162.749637,99.7391379 C162.749637,101.02667 161.816004,102.070537 160.664766,102.070537 L103.803258,102.070537 C102.651656,102.070537 101.718387,101.02667 101.718387,99.7391379 L101.718387,98.5736207 C101.718387,97.2864526 102.651656,96.2429504 103.803258,96.2429504 L160.664766,96.2429504 L160.664766,96.2429504 Z M175.828125,116.639866 L79.5862031,116.639866 L80.9278008,113.725709 L174.375,113.725709 L174.375,11.7429504 L11.625,11.7429504 L11.625,113.725709 L22.2437109,113.725709 L23.5853086,116.639866 L10.171875,116.639866 C9.36938672,116.639866 8.71875,115.987177 8.71875,115.18297 L8.71875,10.2856897 C8.71875,9.48148276 9.36938672,8.82915733 10.171875,8.82915733 L175.828125,8.82915733 C176.630613,8.82915733 177.28125,9.48148276 177.28125,10.2856897 L177.28125,115.182606 C177.28125,115.987177 176.630613,116.639866 175.828125,116.639866 L175.828125,116.639866 Z" id="Shape" fill="#44505D"></path>
                        <path d="M78.0873047,164.144164 L68.1421172,160.905119 L60.9807539,168.780373 C59.8469531,169.087778 58.6819102,168.407407 58.378207,167.260466 L51.5859375,143.259552 L44.7940312,167.260466 C44.4903281,168.407043 43.3249219,169.087778 42.1914844,168.780373 L35.0301211,160.905119 L25.0849336,164.144164 C23.9511328,163.836759 23.2783359,162.658129 23.5820391,161.511552 L34.5226172,123.374006 C36.2133281,123.685418 37.2853711,124.933614 37.7154961,127.152832 C38.3170898,130.254929 39.9144375,130.924009 42.5079023,129.161164 C45.1017305,127.397591 47.2628906,127.832474 48.9921094,130.46545 C50.7213281,133.098427 52.4501836,133.098427 54.1794023,130.46545 C55.9086211,127.832474 58.0701445,127.397591 60.6636094,129.161164 C63.2574375,130.924373 64.8547852,130.254929 65.4560156,127.152832 C65.8861406,124.93325 66.9581836,123.685418 68.6488945,123.374006 L79.5894727,161.511187 C79.8935391,162.658129 79.2211055,163.836759 78.0873047,164.144164 L78.0873047,164.144164 Z M77.6582695,102.418735 C75.3946641,103.939371 75.0208477,105.840621 76.5368203,108.122121 C78.052793,110.403621 77.4773555,111.808433 74.8105078,112.337287 C72.1440234,112.86614 71.0792461,114.477832 71.6165391,117.172362 C72.1541953,119.866892 71.0908711,120.942082 68.4269297,120.398659 C65.7629883,119.855237 64.17,120.931884 63.646875,123.629328 C63.1241133,126.326772 61.7349258,126.908802 59.4793125,125.375418 C57.2240625,123.842034 55.3444453,124.220099 53.8411875,126.509612 C52.3375664,128.799125 50.8339453,128.799125 49.3303242,126.509612 C47.8267031,124.220099 45.9474492,123.842034 43.6921992,125.375418 C41.4365859,126.908802 40.0477617,126.326772 39.5246367,123.629328 C39.001875,120.931884 37.4085234,119.855237 34.744582,120.398659 C32.0810039,120.942082 31.0176797,119.866892 31.5549727,117.172362 C32.0922656,114.477832 31.0274883,112.86614 28.3610039,112.337287 C25.6945195,111.808433 25.119082,110.403256 26.6346914,108.122121 C28.1506641,105.840621 27.7768477,103.939371 25.5132422,102.418735 C23.2496367,100.897735 23.2496367,99.3767349 25.5132422,97.8560991 C27.7768477,96.3350991 28.1506641,94.4338491 26.6346914,92.1527134 C25.1187187,89.8715776 25.6941562,88.4664009 28.3610039,87.9375474 C31.0274883,87.408694 32.0922656,85.7973664 31.5549727,83.1028362 C31.0173164,80.408306 32.0806406,79.3331164 34.744582,79.8765388 C37.4085234,80.4199612 39.001875,79.3429504 39.5246367,76.6455065 C40.0473984,73.9480625 41.4365859,73.3663966 43.6921992,74.8994159 C45.9474492,76.4327996 47.8270664,76.0547349 49.3303242,73.7648578 C50.8339453,71.4753448 52.3375664,71.4753448 53.8411875,73.7648578 C55.3448086,76.0547349 57.2240625,76.4327996 59.4793125,74.8994159 C61.7349258,73.3660323 63.12375,73.9480625 63.646875,76.6455065 C64.17,79.3429504 65.7629883,80.419597 68.4269297,79.8765388 C71.0905078,79.3327522 72.153832,80.408306 71.6165391,83.1028362 C71.0792461,85.7973664 72.1440234,87.4090582 74.8105078,87.9375474 C77.4769922,88.4664009 78.0524297,89.8715776 76.5368203,92.1527134 C75.0208477,94.4342134 75.3946641,96.3354634 77.6582695,97.8560991 C79.921875,99.3767349 79.921875,100.898099 77.6582695,102.418735 L77.6582695,102.418735 Z M51.5859375,80.6982284 C41.0119102,80.6982284 32.4399258,89.4734806 32.4399258,100.297494 C32.4399258,111.122235 41.0119102,119.897123 51.5859375,119.897123 C62.1599648,119.897123 70.7319492,111.122235 70.7319492,100.297494 C70.7315859,89.4734806 62.1599648,80.6982284 51.5859375,80.6982284 L51.5859375,80.6982284 Z M51.5859375,116.222466 C42.9946992,116.222466 36.0298711,109.093142 36.0298711,100.297858 C36.0298711,91.5033017 42.9946992,84.3736142 51.5859375,84.3736142 C60.1771758,84.3736142 67.1420039,91.5029375 67.1420039,100.297858 C67.1420039,109.092778 60.1771758,116.222466 51.5859375,116.222466 L51.5859375,116.222466 Z" id="Shape" fill="#60D3C2"></path>
                        <path d="M159.84375,56.9071078 L26.15625,56.9071078 C24.5512734,56.9071078 23.25,55.6024569 23.25,53.9933147 L23.25,52.5364181 C23.25,50.9272759 24.5512734,49.6229892 26.15625,49.6229892 L159.84375,49.6229892 C161.448727,49.6229892 162.75,50.9272759 162.75,52.5364181 L162.75,53.9933147 C162.75,55.6024569 161.448727,56.9071078 159.84375,56.9071078 L159.84375,56.9071078 Z M26.15625,36.510556 L159.84375,36.510556 C161.448727,36.510556 162.75,37.8152069 162.75,39.4239849 L162.75,40.8808815 C162.75,42.4903879 161.448727,43.7950388 159.84375,43.7950388 L26.15625,43.7950388 C24.5512734,43.7950388 23.25,42.4903879 23.25,40.8808815 L23.25,39.4239849 C23.25,37.8152069 24.5512734,36.510556 26.15625,36.510556 L26.15625,36.510556 Z" id="Shape" fill="#44505D"></path>
                        <path d="M26.15625,23.3984871 L101.71875,23.3984871 C103.323727,23.3984871 104.625,24.7031379 104.625,26.3119159 L104.625,27.7688125 C104.625,29.378319 103.323727,30.6829698 101.71875,30.6829698 L26.15625,30.6829698 C24.5512734,30.6829698 23.25,29.378319 23.25,27.7688125 L23.25,26.3119159 C23.25,24.7031379 24.5512734,23.3984871 26.15625,23.3984871 L26.15625,23.3984871 Z" id="Shape" fill="#44505D"></path>
                    </g>
                </g>
            </g>
        </g>
    </g>
</svg>