<?xml version="1.0" encoding="UTF-8" standalone="no"?>
<svg width="583px" height="154px" viewBox="0 0 583 154" version="1.1" xmlns="http://www.w3.org/2000/svg" xmlns:xlink="http://www.w3.org/1999/xlink" xmlns:sketch="http://www.bohemiancoding.com/sketch/ns">
    <!-- Generator: Sketch 3.4.3 (16044) - http://www.bohemiancoding.com/sketch -->
    <title>lock-icon</title>
    <desc>Created with Sketch.</desc>
    <defs></defs>
    <g id="Features" stroke="none" stroke-width="1" fill="none" fill-rule="evenodd" sketch:type="MSPage">
        <g id="Desktop" sketch:type="MSArtboardGroup" transform="translate(-89.000000, -215.000000)">
            <g id="lock-icon" sketch:type="MSLayerGroup" transform="translate(89.000000, 215.000000)">
                <rect id="Rectangle-9" stroke="#FFFFFF" fill="#FFFFFF" sketch:type="MSShapeGroup" x="0" y="0" width="583" height="154"></rect>
                <path d="M327.732894,67.228717 L256.23796,67.228717 C252.261559,67.228717 249,70.4817489 249,74.4659668 L249,128.764882 C249,132.746258 252.261559,136 256.23796,136 L327.732894,136 C331.715691,136 334.974407,132.746258 334.974407,128.764882 L334.974407,74.4659668 C334.974407,70.4817489 331.715691,67.228717 327.732894,67.228717 L327.732894,67.228717 Z M295.90818,104.924237 L295.90818,122.7278 L288.062674,122.7278 L288.062674,104.924237 C285.639599,103.545713 283.994608,100.976969 283.994608,97.9946677 C283.994608,93.5805492 287.572375,89.9999403 291.987204,89.9999403 C296.396348,89.9999403 299.985484,93.5805492 299.985484,97.9946677 C299.985484,100.976969 298.332676,103.545713 295.90818,104.924237 L295.90818,104.924237 Z M310.609355,63.379509 L310.609355,49.574375 C310.609355,39.3164526 302.2501,30.9600404 291.987204,30.9600404 C281.718623,30.9600404 273.360789,39.3164526 273.360789,49.5821913 L273.357947,63.379509 L259.408565,63.379509 L259.408565,49.5821913 C259.408565,31.6194579 274.020207,17 291.987204,17 C309.945674,17 324.560157,31.6194579 324.560157,49.5821913 L324.560157,63.379509 L310.609355,63.379509 L310.609355,63.379509 Z" id="Shape" fill="#44505D" sketch:type="MSShapeGroup"></path>
                <g id="1450241857_Key" transform="translate(66.000000, 17.000000)" fill="#44505D" sketch:type="MSShapeGroup">
                    <g id="Layer_1">
                        <path d="M107.84375,7.4375 C108.417367,7.4375 109.525555,7.58253125 110.472906,8.52709375 C111.421188,9.47816406 111.5625,10.5826328 111.5625,11.15625 C111.5625,11.7298672 111.421188,12.8343359 110.472906,13.7854062 L106.304188,17.954125 L104.125,20.1333125 L104.125,23.2133672 L104.125,37.1875 L96.6875,37.1875 L89.25,37.1875 L89.25,44.625 L89.25,52.0625 L81.8125,52.0625 L74.375,52.0625 L74.375,59.5 L74.375,66.9375 L73.6266016,66.9375 L64.5333281,66.9375 L66.3378516,75.8494844 C66.7338984,77.8176328 66.9375,79.8220391 66.9375,81.8125 C66.9375,98.219625 53.5918359,111.5625 37.1875,111.5625 C20.7831641,111.5625 7.4375,98.219625 7.4375,81.8125 C7.4375,65.405375 20.7831641,52.0625 37.1875,52.0625 C41.7959609,52.0625 46.3830391,53.2394844 50.8204375,55.5562656 L55.6613203,58.0840859 L59.5213828,54.2203047 L105.213664,8.52802344 C106.161945,7.58253125 107.270133,7.4375 107.84375,7.4375 L107.84375,7.4375 Z M37.1875,96.6875 C45.3910625,96.6875 52.0625,90.0123437 52.0625,81.8125 C52.0625,73.6126563 45.3910625,66.9375 37.1875,66.9375 C28.9839375,66.9375 22.3125,73.6126563 22.3125,81.8125 C22.3125,90.0123437 28.9839375,96.6875 37.1875,96.6875 L37.1875,96.6875 Z M107.84375,0 C104.989609,0 102.134539,1.08959375 99.9562813,3.26878125 L54.2630703,48.9610625 C49.1284062,46.2807734 43.3792187,44.625 37.1875,44.625 C16.6507031,44.625 0,61.2719844 0,81.8125 C0,102.353016 16.6507031,119 37.1875,119 C57.7242969,119 74.375,102.353016 74.375,81.8125 C74.375,79.2632969 74.1137578,76.7791719 73.6266016,74.375 L81.8125,74.375 L81.8125,59.5 L96.6875,59.5 L96.6875,44.625 L111.5625,44.625 L111.5625,23.2133672 L115.731219,19.0446484 C120.089594,14.6862734 120.089594,7.62715625 115.731219,3.26878125 C113.552961,1.08959375 110.697891,0 107.84375,0 L107.84375,0 L107.84375,0 Z M37.1875,89.25 C33.0801406,89.25 29.75,85.9235781 29.75,81.8125 C29.75,77.7014219 33.0801406,74.375 37.1875,74.375 C41.2948594,74.375 44.625,77.7014219 44.625,81.8125 C44.625,85.9235781 41.2948594,89.25 37.1875,89.25 L37.1875,89.25 L37.1875,89.25 Z" id="Shape"></path>
                    </g>
                </g>
                <g id="1450241880_protection_on_1" transform="translate(399.000000, 17.000000)" stroke-width="8" sketch:type="MSShapeGroup">
                    <g id="vec_x5F_bonus_x5F_1_x5C_3">
                        <path d="M49.277963,0.809074074 C59.0573704,8.90201852 80.2991852,21.0397037 96.1457037,21.0397037 L96.1457037,62.3978704 C96.1457037,92.916963 68.2203704,107.360981 48.8762593,118.826852 C33.3517963,109.386815 1.73148148,92.6987963 1.05966667,64.2644074 C0.50212963,40.650463 1.05966667,44.6675 1.05966667,21.0397037 C16.9061852,21.0397037 39.5020185,8.22674074 49.277963,0.809074074 Z" id="Shape" stroke="#44505D"></path>
                        <path d="M28.4586296,58.6301667 L43.1035,73.2785 L68.5043333,47.8776667" id="Shape" stroke="#60D3C2"></path>
                    </g>
                </g>
            </g>
        </g>
    </g>
</svg>